<svg width="50" height="27" viewBox="0 0 50 27" fill="none" xmlns="http://www.w3.org/2000/svg">
<g filter="url(#filter0_i_48_707)">
<path d="M0.26 13.04C0.26 11.48 0.536 9.956 1.088 8.468C1.64 6.956 2.444 5.588 3.5 4.364C4.58 3.116 5.888 2.132 7.424 1.412C8.96 0.667999 10.7 0.295998 12.644 0.295998C14.948 0.295998 16.94 0.823999 18.62 1.88C20.3 2.912 21.548 4.244 22.364 5.876L19.196 8C18.716 6.968 18.104 6.152 17.36 5.552C16.64 4.952 15.848 4.532 14.984 4.292C14.144 4.052 13.316 3.932 12.5 3.932C11.156 3.932 9.98 4.208 8.972 4.76C7.964 5.288 7.112 5.996 6.416 6.884C5.744 7.772 5.228 8.768 4.868 9.872C4.532 10.976 4.364 12.08 4.364 13.184C4.364 14.408 4.568 15.596 4.976 16.748C5.384 17.876 5.948 18.884 6.668 19.772C7.412 20.636 8.288 21.32 9.296 21.824C10.304 22.328 11.408 22.58 12.608 22.58C13.424 22.58 14.276 22.436 15.164 22.148C16.052 21.86 16.868 21.416 17.612 20.816C18.38 20.192 18.98 19.376 19.412 18.368L22.76 20.276C22.232 21.548 21.404 22.628 20.276 23.516C19.172 24.404 17.924 25.076 16.532 25.532C15.164 25.988 13.808 26.216 12.464 26.216C10.664 26.216 9.02 25.844 7.532 25.1C6.044 24.332 4.76 23.324 3.68 22.076C2.6 20.804 1.76 19.388 1.16 17.828C0.56 16.244 0.26 14.648 0.26 13.04ZM36.793 26.18C34.945 26.18 33.277 25.82 31.789 25.1C30.301 24.38 29.017 23.408 27.937 22.184C26.857 20.936 26.017 19.544 25.417 18.008C24.841 16.448 24.553 14.852 24.553 13.22C24.553 11.516 24.865 9.896 25.489 8.36C26.113 6.8 26.977 5.42 28.081 4.22C29.185 2.996 30.481 2.036 31.969 1.34C33.481 0.619998 35.113 0.259999 36.865 0.259999C38.689 0.259999 40.345 0.631999 41.833 1.376C43.345 2.12 44.629 3.116 45.685 4.364C46.765 5.612 47.593 7.004 48.169 8.54C48.769 10.076 49.069 11.648 49.069 13.256C49.069 14.96 48.757 16.592 48.133 18.152C47.533 19.688 46.681 21.068 45.577 22.292C44.473 23.492 43.165 24.44 41.653 25.136C40.165 25.832 38.545 26.18 36.793 26.18ZM28.657 13.22C28.657 14.42 28.849 15.584 29.233 16.712C29.617 17.84 30.157 18.848 30.853 19.736C31.573 20.6 32.437 21.284 33.445 21.788C34.453 22.292 35.581 22.544 36.829 22.544C38.125 22.544 39.277 22.28 40.285 21.752C41.293 21.224 42.133 20.516 42.805 19.628C43.501 18.716 44.029 17.708 44.389 16.604C44.749 15.476 44.929 14.348 44.929 13.22C44.929 12.02 44.737 10.868 44.353 9.764C43.993 8.636 43.453 7.64 42.733 6.776C42.013 5.888 41.149 5.192 40.141 4.688C39.157 4.184 38.053 3.932 36.829 3.932C35.533 3.932 34.381 4.196 33.373 4.724C32.365 5.252 31.513 5.96 30.817 6.848C30.121 7.736 29.581 8.732 29.197 9.836C28.837 10.94 28.657 12.068 28.657 13.22Z" fill="#2FFFF3"/>
</g>
<path d="M1.088 8.468L2.02558 8.81581L2.02736 8.81094L1.088 8.468ZM3.5 4.364L2.74383 3.70962L2.74284 3.71077L3.5 4.364ZM7.424 1.412L7.84847 2.31753L7.85993 2.31198L7.424 1.412ZM18.62 1.88L18.0878 2.72668L18.0966 2.73208L18.62 1.88ZM22.364 5.876L22.9209 6.70659L23.6522 6.21629L23.2584 5.42879L22.364 5.876ZM19.196 8L18.2893 8.42173L18.7822 9.48142L19.7529 8.8306L19.196 8ZM17.36 5.552L16.7198 6.32022L16.726 6.32537L16.7322 6.33041L17.36 5.552ZM14.984 4.292L14.7093 5.25355L14.7164 5.25552L14.984 4.292ZM8.972 4.76L9.43601 5.64583L9.4442 5.64154L9.45232 5.6371L8.972 4.76ZM6.416 6.884L5.62894 6.26712L5.62371 6.27379L5.61859 6.28056L6.416 6.884ZM4.868 9.872L3.91727 9.56198L3.9142 9.57138L3.91133 9.58084L4.868 9.872ZM4.976 16.748L4.03335 17.0819L4.03562 17.0881L4.976 16.748ZM6.668 19.772L5.89124 20.4018L5.90057 20.4133L5.91023 20.4245L6.668 19.772ZM9.296 21.824L8.84879 22.7184L8.84879 22.7184L9.296 21.824ZM15.164 22.148L14.8555 21.1968L14.8555 21.1968L15.164 22.148ZM17.612 20.816L18.2398 21.5944L18.2426 21.5921L17.612 20.816ZM19.412 18.368L19.9071 17.4992L18.934 16.9446L18.4929 17.9741L19.412 18.368ZM22.76 20.276L23.6836 20.6594L24.022 19.8442L23.2551 19.4072L22.76 20.276ZM20.276 23.516L19.6574 22.7302L19.6492 22.7368L20.276 23.516ZM16.532 25.532L16.2207 24.5817L16.2158 24.5833L16.532 25.532ZM7.532 25.1L7.07332 25.9887L7.08479 25.9944L7.532 25.1ZM3.68 22.076L2.91767 22.7233L2.92383 22.7304L3.68 22.076ZM1.16 17.828L0.224829 18.1822L0.226654 18.187L1.16 17.828ZM1.26 13.04C1.26 11.6008 1.51413 10.1945 2.02557 8.81581L0.150434 8.12019C-0.442128 9.71753 -0.74 11.3592 -0.74 13.04H1.26ZM2.02736 8.81094C2.5377 7.41304 3.2798 6.15007 4.25716 5.01723L2.74284 3.71077C1.6082 5.02592 0.742298 6.49896 0.148643 8.12506L2.02736 8.81094ZM4.25617 5.01838C5.24183 3.87939 6.43576 2.97965 7.84843 2.31746L6.99957 0.50654C5.34024 1.28435 3.91817 2.35261 2.74383 3.70962L4.25617 5.01838ZM7.85993 2.31198C9.24227 1.64241 10.8299 1.296 12.644 1.296V-0.704002C10.5701 -0.704002 8.67773 -0.30641 6.98807 0.512018L7.85993 2.31198ZM12.644 1.296C14.7906 1.296 16.5915 1.78611 18.0878 2.72664L19.1522 1.03336C17.2885 -0.13811 15.1054 -0.704002 12.644 -0.704002V1.296ZM18.0966 2.73208C19.6309 3.67457 20.7438 4.87159 21.4696 6.32321L23.2584 5.42879C22.3522 3.6164 20.9691 2.14943 19.1434 1.02792L18.0966 2.73208ZM21.8071 5.0454L18.6391 7.1694L19.7529 8.8306L22.9209 6.70659L21.8071 5.0454ZM20.1027 7.57827C19.5704 6.43382 18.8714 5.48622 17.9878 4.77359L16.7322 6.33041C17.3366 6.81778 17.8616 7.50217 18.2893 8.42173L20.1027 7.57827ZM18.0002 4.78378C17.1763 4.0972 16.2584 3.60815 15.2516 3.32848L14.7164 5.25552C15.4376 5.45585 16.1037 5.8068 16.7198 6.32022L18.0002 4.78378ZM15.2587 3.33047C14.3357 3.06674 13.4152 2.932 12.5 2.932V4.932C13.2168 4.932 13.9523 5.03725 14.7093 5.25352L15.2587 3.33047ZM12.5 2.932C11.0167 2.932 9.67012 3.23757 8.49169 3.8829L9.45232 5.6371C10.2899 5.17843 11.2953 4.932 12.5 4.932V2.932ZM8.50799 3.87417C7.37558 4.46734 6.41313 5.26661 5.62894 6.26712L7.20306 7.50088C7.81088 6.72539 8.55242 6.10866 9.43601 5.64583L8.50799 3.87417ZM5.61859 6.28056C4.8767 7.26091 4.31023 8.35689 3.91727 9.56198L5.81873 10.182C6.14577 9.1791 6.6113 8.28309 7.21341 7.48744L5.61859 6.28056ZM3.91133 9.58084C3.54791 10.7749 3.364 11.9769 3.364 13.184H5.364C5.364 12.1831 5.51609 11.1771 5.82467 10.1632L3.91133 9.58084ZM3.364 13.184C3.364 14.5216 3.58734 15.8225 4.03337 17.0818L5.91863 16.4142C5.54866 15.3695 5.364 14.2944 5.364 13.184H3.364ZM4.03562 17.0881C4.47972 18.3159 5.0975 19.4229 5.89124 20.4018L7.44476 19.1422C6.7985 18.3451 6.28828 17.4361 5.91638 16.4079L4.03562 17.0881ZM5.91023 20.4245C6.73966 21.3877 7.72084 22.1545 8.84879 22.7184L9.74321 20.9296C8.85516 20.4855 8.08434 19.8843 7.42577 19.1195L5.91023 20.4245ZM8.84879 22.7184C10.0046 23.2963 11.2631 23.58 12.608 23.58V21.58C11.5529 21.58 10.6034 21.3597 9.74321 20.9296L8.84879 22.7184ZM12.608 23.58C13.5426 23.58 14.499 23.415 15.4725 23.0992L14.8555 21.1968C14.053 21.457 13.3054 21.58 12.608 21.58V23.58ZM15.4725 23.0992C16.4794 22.7727 17.4031 22.2691 18.2398 21.5944L16.9842 20.0376C16.3329 20.5629 15.6246 20.9473 14.8555 21.1968L15.4725 23.0992ZM18.2426 21.5921C19.1495 20.8553 19.8424 19.9024 20.3311 18.7619L18.4929 17.9741C18.1176 18.8496 17.6105 19.5287 16.9814 20.0399L18.2426 21.5921ZM18.9169 19.2368L22.2649 21.1448L23.2551 19.4072L19.9071 17.4992L18.9169 19.2368ZM21.8364 19.8926C21.3768 20.9998 20.6569 21.9434 19.6574 22.7303L20.8946 24.3017C22.1511 23.3126 23.0872 22.0962 23.6836 20.6594L21.8364 19.8926ZM19.6492 22.7368C18.6424 23.5466 17.502 24.1619 16.2207 24.5817L16.8433 26.4823C18.346 25.9901 19.7016 25.2614 20.9028 24.2952L19.6492 22.7368ZM16.2158 24.5833C14.9423 25.0078 13.6929 25.216 12.464 25.216V27.216C13.9231 27.216 15.3857 26.9682 16.8482 26.4807L16.2158 24.5833ZM12.464 25.216C10.8063 25.216 9.3172 24.8746 7.97921 24.2056L7.08479 25.9944C8.72281 26.8134 10.5217 27.216 12.464 27.216V25.216ZM7.99064 24.2114C6.61414 23.5009 5.43158 22.5719 4.43617 21.4216L2.92383 22.7304C4.08842 24.0761 5.47386 25.1631 7.07336 25.9886L7.99064 24.2114ZM4.44229 21.4288C3.43525 20.2427 2.65302 18.9242 2.09335 17.469L0.226654 18.187C0.86698 19.8518 1.76475 21.3653 2.91771 22.7232L4.44229 21.4288ZM2.09516 17.4738C1.53572 15.9968 1.26 14.5206 1.26 13.04H-0.74C-0.74 14.7754 -0.415716 16.4912 0.224841 18.1822L2.09516 17.4738ZM31.789 25.1L32.2245 24.1998L32.2245 24.1998L31.789 25.1ZM27.937 22.184L27.1808 22.8384L27.1871 22.8456L27.937 22.184ZM25.417 18.008L24.4789 18.3544L24.4821 18.3631L24.4855 18.3718L25.417 18.008ZM25.489 8.36L26.4154 8.73638L26.4174 8.73139L25.489 8.36ZM28.081 4.22L28.8169 4.89709L28.8235 4.88977L28.081 4.22ZM31.969 1.34L32.3927 2.24583L32.3989 2.24286L31.969 1.34ZM41.833 1.376L41.3857 2.27044L41.3915 2.27326L41.833 1.376ZM45.685 4.364L44.9215 5.00998L44.9288 5.01838L45.685 4.364ZM48.169 8.54L47.2326 8.89116L47.2375 8.90385L48.169 8.54ZM48.133 18.152L47.2045 17.7806L47.2015 17.7881L48.133 18.152ZM45.577 22.292L46.3129 22.9691L46.3195 22.9618L45.577 22.292ZM41.653 25.136L41.2348 24.2276L41.2293 24.2302L41.653 25.136ZM29.233 16.712L30.1796 16.3897L30.1796 16.3897L29.233 16.712ZM30.853 19.736L30.0659 20.3529L30.0752 20.3647L30.0847 20.3762L30.853 19.736ZM40.285 21.752L40.749 22.6378L40.749 22.6378L40.285 21.752ZM42.805 19.628L42.01 19.0213L42.0076 19.0246L42.805 19.628ZM44.389 16.604L45.3397 16.914L45.3416 16.908L44.389 16.604ZM44.353 9.764L43.4003 10.068L43.4042 10.0803L43.4085 10.0925L44.353 9.764ZM42.733 6.776L41.9561 7.40586L41.9647 7.41618L42.733 6.776ZM40.141 4.688L39.6851 5.57808L39.6938 5.58243L40.141 4.688ZM33.373 4.724L32.909 3.83817L32.909 3.83817L33.373 4.724ZM30.817 6.848L31.604 7.46488L31.604 7.46488L30.817 6.848ZM29.197 9.836L28.2525 9.50748L28.2493 9.5167L28.2462 9.52598L29.197 9.836ZM36.793 25.18C35.0779 25.18 33.5615 24.8467 32.2245 24.1998L31.3534 26.0002C32.9925 26.7933 34.8121 27.18 36.793 27.18V25.18ZM32.2245 24.1998C30.8545 23.5369 29.6778 22.6455 28.6868 21.5224L27.1871 22.8456C28.3561 24.1705 29.7474 25.2231 31.3534 26.0002L32.2245 24.1998ZM28.6931 21.5296C27.6876 20.3677 26.9069 19.0739 26.3484 17.6441L24.4855 18.3718C25.127 20.0141 26.0263 21.5043 27.1808 22.8384L28.6931 21.5296ZM26.3551 17.6616C25.8192 16.2104 25.553 14.7315 25.553 13.22H23.553C23.553 14.9725 23.8627 16.6856 24.4789 18.3544L26.3551 17.6616ZM25.553 13.22C25.553 11.6414 25.8414 10.1495 26.4154 8.73638L24.5625 7.98362C23.8886 9.64251 23.553 11.3906 23.553 13.22H25.553ZM26.4174 8.73139C26.9977 7.28064 27.7976 6.00498 28.8169 4.89706L27.345 3.54294C26.1563 4.83502 25.2282 6.31936 24.5605 7.98861L26.4174 8.73139ZM28.8235 4.88977C29.8384 3.76461 31.0261 2.88502 32.3927 2.24581L31.5453 0.434188C29.9359 1.18698 28.5315 2.22739 27.3384 3.55023L28.8235 4.88977ZM32.3989 2.24286C33.7704 1.58978 35.2547 1.26 36.865 1.26V-0.740001C34.9713 -0.740001 33.1916 -0.349778 31.539 0.437137L32.3989 2.24286ZM36.865 1.26C38.5489 1.26 40.0496 1.60235 41.3858 2.27043L42.2802 0.481572C40.6403 -0.338353 38.829 -0.740001 36.865 -0.740001V1.26ZM41.3915 2.27326C42.7839 2.95843 43.9572 3.87022 44.9216 5.00994L46.4484 3.71806C45.3007 2.36177 43.906 1.28156 42.2745 0.478742L41.3915 2.27326ZM44.9288 5.01838C45.9317 6.17732 46.6985 7.46677 47.2326 8.89112L49.1053 8.18888C48.4874 6.54123 47.5982 5.04668 46.4411 3.70962L44.9288 5.01838ZM47.2375 8.90385C47.7934 10.3269 48.069 11.7757 48.069 13.256H50.069C50.069 11.5203 49.7445 9.82509 49.1004 8.17615L47.2375 8.90385ZM48.069 13.256C48.069 14.8346 47.7806 16.3404 47.2045 17.7806L49.0614 18.5234C49.7334 16.8436 50.069 15.0854 50.069 13.256H48.069ZM47.2015 17.7881C46.6455 19.2117 45.8574 20.488 44.8344 21.6222L46.3195 22.9618C47.5045 21.648 48.4205 20.1643 49.0644 18.5159L47.2015 17.7881ZM44.841 21.6149C43.8285 22.7155 42.6292 23.5858 41.2348 24.2276L42.0711 26.0444C43.7007 25.2942 45.1174 24.2685 46.3129 22.9691L44.841 21.6149ZM41.2293 24.2302C39.8826 24.8601 38.4085 25.18 36.793 25.18V27.18C38.6815 27.18 40.4473 26.8039 42.0767 26.0418L41.2293 24.2302ZM27.657 13.22C27.657 14.5288 27.8667 15.8017 28.2863 17.0343L30.1796 16.3897C29.8312 15.3663 29.657 14.3112 29.657 13.22H27.657ZM28.2863 17.0343C28.7045 18.2627 29.2967 19.3715 30.0659 20.3529L31.64 19.1191C31.0172 18.3245 30.5294 17.4173 30.1796 16.3897L28.2863 17.0343ZM30.0847 20.3762C30.8933 21.3464 31.8666 22.1169 32.9978 22.6824L33.8922 20.8936C33.0073 20.4511 32.2527 19.8536 31.6212 19.0958L30.0847 20.3762ZM32.9978 22.6824C34.159 23.263 35.4426 23.544 36.829 23.544V21.544C35.7193 21.544 34.747 21.321 33.8922 20.8936L32.9978 22.6824ZM36.829 23.544C38.2639 23.544 39.579 23.2507 40.749 22.6378L39.821 20.8662C38.9749 21.3093 37.986 21.544 36.829 21.544V23.544ZM40.749 22.6378C41.8846 22.043 42.8394 21.2396 43.6024 20.2314L42.0076 19.0246C41.4265 19.7924 40.7013 20.405 39.821 20.8662L40.749 22.6378ZM43.5999 20.2347C44.365 19.2322 44.9453 18.1236 45.3397 16.914L43.4382 16.294C43.1127 17.2924 42.6369 18.1998 42.01 19.0213L43.5999 20.2347ZM45.3416 16.908C45.7314 15.6867 45.929 14.4562 45.929 13.22H43.929C43.929 14.2398 43.7665 15.2653 43.4363 16.3L45.3416 16.908ZM45.929 13.22C45.929 11.9112 45.7192 10.6479 45.2975 9.43548L43.4085 10.0925C43.7548 11.0881 43.929 12.1288 43.929 13.22H45.929ZM45.3056 9.45996C44.9085 8.21565 44.3081 7.10409 43.5012 6.13581L41.9647 7.41618C42.5979 8.17591 43.0774 9.05635 43.4003 10.068L45.3056 9.45996ZM43.5097 6.1462C42.7013 5.14916 41.7255 4.36223 40.5882 3.79357L39.6938 5.58243C40.5724 6.02176 41.3246 6.62684 41.9562 7.4058L43.5097 6.1462ZM40.5968 3.79796C39.4572 3.21422 38.1943 2.932 36.829 2.932V4.932C37.9117 4.932 38.8568 5.15378 39.6851 5.57804L40.5968 3.79796ZM36.829 2.932C35.394 2.932 34.0789 3.22532 32.909 3.83817L33.837 5.60983C34.683 5.16667 35.6719 4.932 36.829 4.932V2.932ZM32.909 3.83817C31.7765 4.43134 30.8141 5.23061 30.0299 6.23112L31.604 7.46488C32.2118 6.68939 32.9534 6.07266 33.837 5.60983L32.909 3.83817ZM30.0299 6.23112C29.2635 7.20901 28.6714 8.30313 28.2525 9.50748L30.1415 10.1645C30.4906 9.16087 30.9785 8.26299 31.604 7.46488L30.0299 6.23112ZM28.2462 9.52598C27.8539 10.7293 27.657 11.9619 27.657 13.22H29.657C29.657 12.1741 29.8201 11.1507 30.1477 10.146L28.2462 9.52598Z" fill="#2FFFF3"/>
<defs>
<filter id="filter0_i_48_707" x="0.26001" y="0.260002" width="48.8091" height="29.956" filterUnits="userSpaceOnUse" color-interpolation-filters="sRGB">
<feFlood flood-opacity="0" result="BackgroundImageFix"/>
<feBlend mode="normal" in="SourceGraphic" in2="BackgroundImageFix" result="shape"/>
<feColorMatrix in="SourceAlpha" type="matrix" values="0 0 0 0 0 0 0 0 0 0 0 0 0 0 0 0 0 0 127 0" result="hardAlpha"/>
<feOffset dy="4"/>
<feGaussianBlur stdDeviation="2"/>
<feComposite in2="hardAlpha" operator="arithmetic" k2="-1" k3="1"/>
<feColorMatrix type="matrix" values="0 0 0 0 1 0 0 0 0 0.411765 0 0 0 0 0.705882 0 0 0 1 0"/>
<feBlend mode="normal" in2="shape" result="effect1_innerShadow_48_707"/>
</filter>
</defs>
</svg>
